<svg width="98" height="29" viewBox="0 0 98 29" fill="none" xmlns="http://www.w3.org/2000/svg">
<path d="M12.44 16.8V15.68H23.8V16.8L21.6 17.08C21.1733 17.1334 20.92 17.2534 20.84 17.44C20.76 17.6 20.72 18.1334 20.72 19.04V28H19.64C18.92 27.2534 18.12 26.6267 17.24 26.12C16.52 26.76 15.6667 27.3067 14.68 27.76C13.6933 28.1867 12.4933 28.4 11.08 28.4C8.89335 28.4 7.01335 27.8534 5.44001 26.76C3.89335 25.64 2.70668 24.1067 1.88001 22.16C1.05335 20.1867 0.640015 17.9467 0.640015 15.44V12.92C0.640015 10.4934 1.05335 8.34669 1.88001 6.48002C2.70668 4.58669 3.92001 3.10669 5.52001 2.04002C7.12001 0.946691 9.08001 0.400024 11.4 0.400024C13.5867 0.400024 15.3867 0.800025 16.8 1.60003C18.24 2.37336 19.2934 3.41336 19.96 4.72003C20.6267 6.00003 20.88 7.40003 20.72 8.92003L16.04 10.08C16.3333 7.41336 16.04 5.37336 15.16 3.96003C14.28 2.52003 12.9733 1.80003 11.24 1.80003C7.58668 1.80003 5.76002 5.04003 5.76002 11.52V17.24C5.76002 23.7467 7.69335 27 11.56 27C12.4133 27 13.2667 26.8267 14.12 26.48C15 26.1334 15.7333 25.6267 16.32 24.96V19.04C16.32 18.1334 16.28 17.5867 16.2 17.4C16.12 17.2134 15.8667 17.1067 15.44 17.08L12.44 16.8Z" fill="black"/>
<path d="M32.0035 26.88V28H24.2835V26.88L26.4835 26.6C26.7768 26.5467 26.9901 26.4934 27.1235 26.44C27.2568 26.36 27.3768 26.1867 27.4835 25.92C27.5901 25.6534 27.7368 25.2267 27.9235 24.64L35.5635 0.800026H39.0035L46.6835 24.64C46.8701 25.2267 47.0168 25.6534 47.1235 25.92C47.2301 26.1867 47.3501 26.36 47.4835 26.44C47.6435 26.4934 47.8568 26.5467 48.1235 26.6L50.3235 26.88V28H39.2835V26.88L41.4835 26.6C41.9101 26.5467 42.1368 26.44 42.1635 26.28C42.2168 26.0934 42.0968 25.5467 41.8035 24.64L40.2835 19.68H31.0435L29.4835 24.64C29.2168 25.5467 29.0968 26.0934 29.1235 26.28C29.1501 26.44 29.3768 26.5467 29.8035 26.6L32.0035 26.88ZM31.5235 18.28H39.8435L35.7235 5.00002L31.5235 18.28Z" fill="black"/>
<path d="M69.6703 21.12H70.7903V28H51.7903V26.88L53.9903 26.6C54.417 26.5467 54.6703 26.44 54.7503 26.28C54.8303 26.0934 54.8703 25.5467 54.8703 24.64V4.16003C54.8703 3.25336 54.8303 2.72002 54.7503 2.56003C54.6703 2.37336 54.417 2.25336 53.9903 2.20003L51.7903 1.92003V0.800026H62.7503V1.92003L60.5503 2.20003C60.1237 2.25336 59.8703 2.37336 59.7903 2.56003C59.7103 2.72002 59.6703 3.25336 59.6703 4.16003V26.6H66.2303C66.8703 26.6 67.3237 26.5867 67.5903 26.56C67.857 26.5067 68.0303 26.4134 68.1103 26.28C68.217 26.12 68.3103 25.88 68.3903 25.56L69.6703 21.12Z" fill="black"/>
<path d="M78.8394 26.88V28H71.1194V26.88L73.3194 26.6C73.6127 26.5467 73.8261 26.4934 73.9594 26.44C74.0927 26.36 74.2127 26.1867 74.3194 25.92C74.4261 25.6534 74.5727 25.2267 74.7594 24.64L82.3994 0.800026H85.8394L93.5194 24.64C93.7061 25.2267 93.8527 25.6534 93.9594 25.92C94.0661 26.1867 94.1861 26.36 94.3194 26.44C94.4794 26.4934 94.6927 26.5467 94.9594 26.6L97.1594 26.88V28H86.1194V26.88L88.3194 26.6C88.7461 26.5467 88.9727 26.44 88.9994 26.28C89.0527 26.0934 88.9327 25.5467 88.6394 24.64L87.1194 19.68H77.8794L76.3194 24.64C76.0527 25.5467 75.9327 26.0934 75.9594 26.28C75.9861 26.44 76.2127 26.5467 76.6394 26.6L78.8394 26.88ZM78.3594 18.28H86.6794L82.5594 5.00002L78.3594 18.28Z" fill="black"/>
</svg>
